<?xml version="1.0" encoding="utf-8"?>
<svg viewBox="151.2523 -34.7632 70.8757 76.9075" width="70.8757" height="76.9075" xmlns="http://www.w3.org/2000/svg">
  <g transform="matrix(3.4983079433441167, 0, 0, -3.26238489151001, 201.0682411603484, -14.157942056071981)" id="g6489" style="fill:#ffffff">
    <g>
      <g>
        <g>
          <path d="M -5.078 -5.29 L -5.114 -5.333 L -5.182 -5.423 L -5.23 -5.478 L -5.374 -5.594 L -5.521 -5.691 C -5.617 -5.777 -5.749 -5.842 -5.905 -5.867 L -6.093 -5.888 C -6.201 -5.876 -6.32 -5.876 -6.408 -5.828 L -6.504 -5.798 C -6.631 -5.732 -6.68 -5.684 -6.728 -5.546 L -6.732 -5.512 L -6.74 -5.512 L -6.748 -5.405 L -6.76 -5.375 L -6.78 -5.141 L -6.78 -5.106 L -6.776 -5.106 L -6.772 -4.935 L -6.757 -4.901 L -6.74 -4.867 L -6.732 -4.867 L -6.728 -4.812 L -6.725 -4.812 L -6.712 -4.768 L -6.712 -4.611 L -6.696 -4.581 L -6.689 -4.542 L -6.68 -4.474 L -6.672 -4.474 L -6.668 -4.435 L -6.664 -4.435 L -6.652 -4.397 L -6.652 -4.371 L -6.644 -4.371 L -6.636 -4.325 L -6.629 -4.325 L -6.556 -4.188 L -6.512 -4.132 C -6.416 -4.073 -6.333 -3.986 -6.181 -3.978 L -6.005 -3.918 C -5.909 -3.923 -5.821 -3.948 -5.725 -3.966 L -5.525 -4.063 L -5.406 -4.192 L -5.398 -4.192 L -5.389 -4.218 L -5.382 -4.218 L -5.346 -4.286 C -5.189 -4.592 -5.119 -4.786 -5.09 -5.141 L -5.086 -5.179 L -5.078 -5.179 L -5.078 -5.29 Z M -4.775 -5.298 L -4.882 -5.239 L -4.914 -5.213 L -4.938 -5.191 L -4.954 -5.123 L -4.963 -5.123 L -4.974 -4.935 L -4.978 -4.935 L -4.986 -4.885 L -4.999 -4.807 L -5.014 -4.683 L -5.022 -4.683 L -5.034 -4.623 L -5.038 -4.623 L -5.054 -4.572 L -5.07 -4.512 L -5.102 -4.418 L -5.11 -4.418 L -5.129 -4.367 C -5.28 -3.998 -5.364 -3.916 -5.749 -3.821 L -5.869 -3.782 C -5.997 -3.777 -6.137 -3.782 -6.252 -3.825 C -6.344 -3.815 -6.393 -3.867 -6.456 -3.901 L -6.612 -4.012 L -6.657 -4.081 L -6.668 -4.115 L -6.716 -4.179 L -6.74 -4.209 L -6.752 -4.256 L -6.757 -4.256 L -6.776 -4.294 L -6.776 -4.307 L -6.788 -4.35 L -6.792 -4.35 L -6.804 -4.414 L -6.812 -4.414 L -6.812 -4.435 L -6.82 -4.512 L -6.828 -4.512 L -6.836 -4.611 L -6.844 -4.611 L -6.856 -4.666 L -6.86 -4.666 L -6.872 -4.738 L -6.876 -4.738 L -6.88 -4.79 L -6.888 -4.79 L -6.888 -4.833 L -6.896 -4.833 L -6.888 -4.905 L -6.968 -5.038 L -6.972 -5.038 L -6.968 -5.081 L -6.964 -5.093 L -6.888 -5.191 L -6.896 -5.191 L -6.896 -5.222 L -6.9 -5.328 L -6.888 -5.393 L -6.876 -5.461 L -6.872 -5.482 L -6.864 -5.482 L -6.86 -5.521 L -6.844 -5.572 L -6.828 -5.606 L -6.764 -5.701 L -6.629 -5.828 L -6.501 -5.931 C -6.369 -5.965 -6.245 -6.046 -6.085 -6.008 C -5.993 -5.995 -5.877 -5.999 -5.817 -5.939 L -5.705 -5.918 L -5.617 -5.893 L -5.43 -5.794 L -5.298 -5.695 C -5.206 -5.645 -5.162 -5.56 -5.086 -5.499 L -5.014 -5.409 L -4.986 -5.384 L -4.822 -5.363 L -4.775 -5.298" id="path6423" style="fill:#ffffff;fill-opacity:1;fill-rule:nonzero;stroke:none"/>
          <path d="M -7.923 -4.615 L -7.915 -4.662 L -7.939 -4.692 L -8.006 -4.666 L -8.023 -4.623 L -8.019 -4.577 L -7.959 -4.577 L -7.923 -4.615 Z" id="path6439" style="fill:#ffffff;fill-opacity:1;fill-rule:nonzero;stroke:none"/>
          <path d="M -6.313 -4.987 L -6.337 -4.957 L -6.345 -4.893 L -6.317 -4.88 L -6.305 -4.893 L -6.301 -4.914 L -6.313 -4.987 M -6.217 -4.876 L -6.234 -4.786 L -6.241 -4.786 L -6.249 -4.688 L -6.273 -4.641 L -6.337 -4.576 C -6.465 -4.534 -6.505 -4.645 -6.56 -4.705 L -6.585 -4.739 L -6.597 -4.782 L -6.601 -4.782 L -6.601 -4.808 L -6.613 -4.846 L -6.62 -4.846 L -6.628 -5.021 L -6.613 -5.179 L -6.601 -5.201 L -6.513 -5.342 L -6.345 -5.333 L -6.297 -5.303 L -6.241 -5.201 L -6.234 -5.201 L -6.225 -5.154 C -6.234 -5.051 -6.205 -4.975 -6.217 -4.876" id="path6443" style="fill:#ffffff;fill-opacity:1;fill-rule:nonzero;stroke:none"/>
          <path d="M -5.526 -7.166 C -5.69 -7.17 -5.845 -7.166 -6.005 -7.166 L -6.173 -7.145 L -6.205 -7.115 L -6.178 -7.102 L -5.818 -7.14 C -5.718 -7.11 -5.622 -7.154 -5.526 -7.158 L -5.526 -7.166 Z M -2.102 -7.577 C -2.249 -7.525 -2.421 -7.525 -2.562 -7.47 C -2.697 -7.456 -2.822 -7.414 -2.969 -7.426 L -3.112 -7.397 L -3.248 -7.371 C -3.352 -7.35 -3.464 -7.345 -3.576 -7.337 C -3.672 -7.285 -3.808 -7.319 -3.896 -7.269 C -4.056 -7.26 -4.179 -7.184 -4.339 -7.204 C -4.452 -7.2 -4.543 -7.158 -4.663 -7.17 C -4.778 -7.136 -4.919 -7.154 -5.034 -7.132 L -5.251 -7.115 C -5.402 -7.098 -5.562 -7.081 -5.718 -7.098 C -5.854 -7.072 -5.997 -7.051 -6.15 -7.055 L -6.345 -7.025 L -6.381 -7.102 L -6.389 -7.102 L -6.385 -7.145 L -6.289 -7.256 C -6.169 -7.289 -6.029 -7.337 -5.894 -7.299 C -5.786 -7.303 -5.682 -7.319 -5.578 -7.307 C -5.478 -7.324 -5.374 -7.303 -5.278 -7.329 L -5.083 -7.345 C -4.955 -7.354 -4.831 -7.341 -4.707 -7.362 C -4.611 -7.337 -4.531 -7.384 -4.435 -7.388 L -4.092 -7.414 C -3.975 -7.452 -3.836 -7.431 -3.72 -7.461 C -3.612 -7.465 -3.504 -7.465 -3.404 -7.491 L -3.18 -7.512 L -2.993 -7.551 L -2.825 -7.577 C -2.705 -7.619 -2.562 -7.615 -2.441 -7.658 L -2.234 -7.7 L -2.062 -7.678 L -2.054 -7.666 L -2.102 -7.577" id="path6451" style="fill:#ffffff;fill-opacity:1;fill-rule:nonzero;stroke:none"/>
          <path d="M -2.277 -8.824 C -2.381 -8.867 -2.492 -8.82 -2.592 -8.807 C -2.737 -8.747 -2.908 -8.709 -3.056 -8.653 L -3.056 -8.649 L -3.259 -8.615 C -3.364 -8.576 -3.479 -8.56 -3.596 -8.542 L -3.779 -8.486 C -3.943 -8.413 -4.147 -8.354 -4.318 -8.294 C -4.487 -8.268 -4.63 -8.205 -4.782 -8.157 L -4.942 -8.085 L -4.938 -8.072 C -4.846 -8.063 -4.774 -8.102 -4.694 -8.115 C -4.578 -8.175 -4.423 -8.191 -4.295 -8.23 L -4.163 -8.247 C -4.047 -8.282 -3.911 -8.294 -3.807 -8.35 C -3.707 -8.375 -3.632 -8.439 -3.519 -8.448 C -3.383 -8.499 -3.228 -8.529 -3.092 -8.576 L -2.84 -8.627 C -2.748 -8.653 -2.645 -8.661 -2.56 -8.7 L -2.428 -8.739 L -2.273 -8.802 L -2.269 -8.802 L -2.277 -8.824 Z M -2.053 -8.816 L -2.113 -8.747 L -2.249 -8.649 C -2.337 -8.653 -2.385 -8.593 -2.473 -8.602 C -2.545 -8.568 -2.605 -8.52 -2.705 -8.525 C -2.861 -8.469 -3.048 -8.443 -3.22 -8.409 L -3.404 -8.328 L -3.607 -8.264 L -3.755 -8.205 L -3.947 -8.149 C -4.171 -8.076 -4.41 -8.05 -4.642 -7.986 C -4.742 -7.957 -4.866 -7.965 -4.954 -7.919 C -5.341 -7.859 -5.697 -7.748 -6.072 -7.67 C -6.153 -7.619 -6.281 -7.627 -6.376 -7.589 L -6.468 -7.572 C -6.56 -7.551 -6.668 -7.546 -6.756 -7.516 L -6.852 -7.5 L -7.06 -7.435 C -7.159 -7.375 -7.295 -7.427 -7.38 -7.465 L -7.395 -7.486 L -7.383 -7.551 L -7.276 -7.508 L -7.12 -7.551 C -6.98 -7.568 -6.856 -7.607 -6.728 -7.645 L -6.672 -7.666 L -6.536 -7.717 C -6.417 -7.73 -6.296 -7.717 -6.197 -7.764 C -6.072 -7.782 -5.969 -7.841 -5.837 -7.811 L -5.793 -7.841 C -5.705 -7.845 -5.637 -7.893 -5.569 -7.923 L -5.645 -7.961 L -5.705 -8.034 L -5.693 -8.042 C -5.586 -8.08 -5.473 -8.097 -5.362 -8.136 C -5.226 -8.157 -5.11 -8.226 -4.966 -8.234 C -4.75 -8.307 -4.531 -8.358 -4.318 -8.431 C -4.215 -8.465 -4.083 -8.482 -3.987 -8.529 L -3.903 -8.56 C -3.796 -8.576 -3.723 -8.64 -3.611 -8.645 C -3.492 -8.679 -3.372 -8.709 -3.255 -8.747 L -3.008 -8.812 C -2.852 -8.85 -2.684 -8.88 -2.537 -8.931 C -2.433 -8.939 -2.341 -8.927 -2.249 -8.957 L -2.053 -8.88 L -2.053 -8.816" id="path6459" style="fill:#ffffff;fill-opacity:1;fill-rule:nonzero;stroke:none"/>
          <path d="M -4.044 -9.811 L -4.068 -9.803 L -4.3 -9.7 L -4.508 -9.593 L -4.711 -9.486 L -4.939 -9.406 C -5.043 -9.358 -5.167 -9.332 -5.267 -9.277 C -5.371 -9.247 -5.467 -9.213 -5.546 -9.148 L -5.714 -9.093 C -5.798 -9.059 -5.862 -9.003 -5.954 -8.982 L -6.078 -8.939 L -6.305 -8.828 L -6.405 -8.759 L -6.377 -8.725 C -6.241 -8.739 -6.149 -8.824 -6.01 -8.841 L -5.958 -8.858 C -5.838 -8.91 -5.702 -8.939 -5.595 -9.007 C -5.502 -9.037 -5.403 -9.076 -5.323 -9.114 L -5.131 -9.213 L -5.015 -9.277 C -4.919 -9.315 -4.811 -9.362 -4.732 -9.418 L -4.555 -9.495 L -4.44 -9.541 L -4.2 -9.674 L -4.044 -9.789 L -4.044 -9.811 Z M -3.529 -10.033 L -3.648 -9.94 L -3.773 -9.823 L -4.024 -9.648 C -4.132 -9.555 -4.291 -9.512 -4.404 -9.418 L -4.56 -9.337 L -4.628 -9.307 L -4.707 -9.259 C -4.799 -9.255 -4.835 -9.187 -4.911 -9.17 L -5.075 -9.098 L -5.291 -9.011 L -5.478 -8.939 L -5.634 -8.876 C -5.723 -8.815 -5.838 -8.785 -5.942 -8.743 C -6.045 -8.73 -6.134 -8.683 -6.23 -8.662 L -6.241 -8.648 L -6.481 -8.64 L -6.526 -8.691 L -6.537 -8.739 L -6.541 -8.739 L -6.517 -8.824 L -6.397 -8.931 C -6.245 -8.987 -6.102 -9.067 -5.949 -9.118 L -5.734 -9.208 C -5.654 -9.273 -5.523 -9.281 -5.431 -9.328 C -5.35 -9.406 -5.211 -9.4 -5.118 -9.469 C -4.971 -9.486 -4.892 -9.585 -4.743 -9.602 L -4.732 -9.614 L -4.536 -9.708 L -4.392 -9.764 C -4.268 -9.799 -4.156 -9.849 -4.068 -9.926 C -3.976 -9.934 -3.904 -9.986 -3.816 -10.007 L -3.733 -10.055 L -3.545 -10.075 L -3.524 -10.046 L -3.529 -10.033" id="path6467" style="fill:#ffffff;fill-opacity:1;fill-rule:nonzero;stroke:none"/>
          <path d="M -7.679 -10.759 L -7.663 -10.759 L -7.639 -10.793 C -7.563 -10.832 -7.5 -10.883 -7.408 -10.904 L -7.315 -10.985 L -7.319 -11.033 L -7.327 -11.049 L -7.24 -11.101 C -7.136 -11.118 -7.068 -11.17 -6.976 -11.19 L -6.912 -11.246 L -6.88 -11.315 L -6.86 -11.331 L -6.844 -11.37 L -6.836 -11.434 L -6.828 -11.434 C -6.675 -11.604 -6.59 -11.739 -6.441 -11.904 L -6.405 -11.968 L -6.396 -11.968 C -6.291 -12.112 -6.094 -12.268 -6.041 -12.434 L -5.997 -12.502 C -5.933 -12.592 -5.839 -12.735 -5.813 -12.849 L -5.801 -13.006 L -5.789 -13.066 L -5.785 -13.066 L -5.765 -13.101 L -5.749 -13.22 L -5.742 -13.22 L -5.713 -13.288 L -5.697 -13.323 C -5.674 -13.411 -5.57 -13.444 -5.537 -13.592 L -5.525 -13.618 L -5.51 -13.681 L -5.501 -13.716 L -5.489 -13.891 L -5.45 -13.994 L -5.425 -14.036 L -5.39 -14.084 L -5.301 -14.16 L -5.169 -14.293 L -5.15 -14.332 L -5.134 -14.507 L -5.142 -14.507 L -5.154 -14.566 L -5.158 -14.566 L -5.162 -14.626 L -5.169 -14.626 L -5.166 -14.634 L -5.169 -14.634 L -5.169 -14.643 L -5.162 -14.643 L -5.158 -14.882 L -5.142 -15.096 L -5.122 -15.211 L -5.118 -15.263 L -5.11 -15.263 L -5.11 -15.285 L -5.105 -15.361 L -5.098 -15.404 L -5.094 -15.404 L -5.098 -15.601 L -5.054 -15.66 L -5.058 -15.733 L -5.066 -15.733 L -5.074 -15.793 L -5.082 -15.793 L -5.086 -15.827 L -5.09 -15.827 L -5.102 -15.882 L -5.146 -15.926 L -5.19 -15.904 L -5.19 -15.844 L -5.182 -15.844 L -5.169 -15.763 L -5.154 -15.682 L -5.154 -15.656 L -5.146 -15.656 L -5.15 -15.605 L -5.25 -15.515 L -5.258 -15.464 L -5.25 -15.464 L -5.237 -15.416 L -5.237 -15.352 L -5.233 -15.352 L -5.233 -15.301 L -5.226 -15.301 L -5.233 -15.224 L -5.25 -15.186 L -5.262 -15.148 L -5.274 -15.13 L -5.286 -15.075 L -5.294 -15.075 L -5.297 -14.934 L -5.301 -14.848 L -5.294 -14.848 L -5.294 -14.707 L -5.301 -14.707 L -5.301 -14.554 L -5.294 -14.554 L -5.294 -14.481 L -5.286 -14.481 L -5.31 -14.344 L -5.318 -14.344 L -5.333 -14.314 L -5.414 -14.233 L -5.497 -14.148 L -5.578 -14.045 L -5.585 -14.007 L -5.593 -14.007 L -5.597 -13.968 L -5.606 -13.866 L -5.637 -13.784 L -5.646 -13.72 L -5.653 -13.72 L -5.669 -13.626 L -5.681 -13.6 L -5.697 -13.566 L -5.761 -13.447 L -5.765 -13.447 L -5.785 -13.417 L -5.821 -13.348 L -5.833 -13.327 L -5.861 -13.288 L -5.869 -13.288 L -5.885 -13.246 L -5.901 -13.191 L -5.905 -13.151 L -5.913 -13.151 L -5.925 -13.04 L -5.933 -12.99 L -5.949 -12.823 L -5.957 -12.823 L -5.973 -12.78 L -6.013 -12.699 L -6.037 -12.647 L -6.041 -12.647 L -6.061 -12.617 L -6.096 -12.554 L -6.1 -12.554 L -6.121 -12.515 C -6.242 -12.333 -6.273 -12.247 -6.481 -12.083 L -6.573 -11.96 L -6.576 -11.96 L -6.609 -11.904 C -6.745 -11.679 -6.895 -11.681 -6.972 -11.442 L -7.052 -11.319 L -7.059 -11.319 L -7.195 -11.242 L -7.395 -11.152 L -7.4 -11.114 L -7.408 -11.114 L -7.432 -11.058 C -7.532 -11.058 -7.551 -10.973 -7.615 -10.938 L -7.791 -10.84 L -7.826 -10.729 L -7.775 -10.708 L -7.679 -10.759" id="path6471" style="fill:#ffffff;fill-opacity:1;fill-rule:nonzero;stroke:none"/>
          <path d="M -9.933 -14.609 L -9.941 -14.742 L -9.949 -14.742 L -9.953 -14.78 L -9.957 -14.78 L -9.969 -14.925 L -9.961 -14.942 L -9.965 -14.942 L -9.969 -15.096 L -9.977 -15.096 L -9.993 -15.156 L -9.993 -15.169 L -10.041 -15.186 L -10.093 -15.165 L -10.129 -15.096 L -10.144 -15.075 L -10.165 -15.032 L -10.185 -14.976 L -10.225 -14.921 L -10.229 -14.908 L -10.325 -14.776 L -10.344 -14.754 L -10.385 -14.673 L -10.389 -14.635 L -10.397 -14.635 L -10.432 -14.575 L -10.493 -14.558 L -10.525 -14.532 L -10.568 -14.472 L -10.708 -14.353 C -10.804 -14.314 -10.856 -14.224 -10.992 -14.238 L -11.156 -14.289 L -11.156 -14.301 L -11.367 -14.293 L -11.371 -14.28 L -11.367 -14.216 L -11.203 -14.067 L -11.12 -14.002 L -10.996 -13.908 L -10.884 -13.797 L -10.756 -13.694 L -10.656 -13.622 C -10.568 -13.588 -10.5 -13.528 -10.404 -13.498 L -10.325 -13.511 L -10.28 -13.553 L -10.237 -13.601 L -10.217 -13.644 L -10.173 -13.694 L -10.141 -13.733 L -10.125 -13.771 L -10.105 -13.849 L -10.097 -13.849 L -10.08 -13.896 L -10.061 -13.95 L -10.045 -13.998 L -10.037 -13.998 L -10.025 -14.057 L -10.013 -14.083 L -10.005 -14.113 L -9.977 -14.284 L -9.969 -14.284 L -9.957 -14.494 L -9.953 -14.494 L -9.933 -14.597 L -9.941 -14.609 L -9.933 -14.609 Z M -9.849 -14.506 L -9.857 -14.404 L -9.877 -14.293 L -9.873 -14.293 L -9.889 -14.19 L -9.897 -14.19 L -9.905 -14.109 L -9.913 -14.109 L -9.921 -14.071 L -9.933 -13.96 L -9.949 -13.916 L -9.957 -13.916 L -9.981 -13.823 L -9.993 -13.767 L -10.001 -13.767 L -10.017 -13.694 L -10.037 -13.656 L -10.053 -13.618 L -10.069 -13.583 L -10.08 -13.571 L -10.225 -13.438 L -10.365 -13.348 C -10.517 -13.305 -10.617 -13.416 -10.704 -13.485 L -10.788 -13.553 L -10.956 -13.626 L -11 -13.669 L -11.043 -13.712 L -11.107 -13.767 L -11.188 -13.831 C -11.275 -13.874 -11.316 -13.96 -11.395 -14.019 L -11.431 -14.057 C -11.509 -14.141 -11.577 -14.232 -11.655 -14.319 L -11.655 -14.357 L -11.647 -14.357 L -11.643 -14.383 L -11.587 -14.456 C -11.423 -14.498 -11.263 -14.442 -11.112 -14.417 L -10.94 -14.383 C -10.844 -14.357 -10.812 -14.434 -10.749 -14.468 L -10.656 -14.562 L -10.549 -14.635 L -10.544 -14.652 L -10.536 -14.652 C -10.466 -14.756 -10.369 -14.849 -10.308 -14.96 L -10.269 -15.032 L -10.261 -15.032 L -10.253 -15.058 L -10.237 -15.087 L -10.229 -15.087 L -10.208 -15.147 L -10.201 -15.147 L -10.161 -15.237 L -10.141 -15.262 L -9.977 -15.348 L -9.897 -15.306 L -9.889 -15.297 L -9.886 -15.258 L -9.869 -15.07 L -9.861 -15.07 L -9.861 -14.994 L -9.869 -14.994 L -9.869 -14.861 L -9.861 -14.861 L -9.861 -14.81 L -9.857 -14.81 L -9.854 -14.758 L -9.845 -14.758 L -9.833 -14.673 L -9.829 -14.673 L -9.825 -14.635 L -9.821 -14.635 L -9.821 -14.579 L -9.849 -14.506" id="path6475" style="fill:#ffffff;fill-opacity:1;fill-rule:nonzero;stroke:none"/>
          <path d="M -7.112 -17.109 L -7.14 -17.139 L -7.244 -17.121 C -7.379 -17.017 -7.481 -16.876 -7.592 -16.746 L -7.604 -16.733 C -7.655 -16.669 -7.771 -16.635 -7.867 -16.648 L -8.071 -16.605 C -8.179 -16.579 -8.263 -16.643 -8.363 -16.617 L -8.399 -16.567 L -8.403 -16.562 L -8.399 -16.562 L -8.395 -16.49 L -8.367 -16.46 L -8.318 -16.421 L -8.267 -16.382 L -8.111 -16.246 L -8.111 -16.237 L -8.067 -16.182 L -7.947 -16.053 L -7.871 -15.99 C -7.803 -15.912 -7.723 -15.853 -7.604 -15.827 L -7.468 -15.814 L -7.34 -15.926 L -7.316 -15.956 L -7.3 -15.981 L -7.26 -16.083 L -7.252 -16.083 L -7.24 -16.122 L -7.228 -16.144 L -7.208 -16.186 L -7.196 -16.25 L -7.188 -16.309 C -7.161 -16.404 -7.193 -16.553 -7.161 -16.643 L -7.148 -16.712 L -7.14 -16.712 L -7.129 -16.908 L -7.124 -16.908 L -7.116 -17.01 L -7.104 -17.071 L -7.112 -17.109 M -6.98 -17.075 L -6.997 -16.908 L -7.004 -16.827 L -7 -16.827 L -7.012 -16.771 L -7.016 -16.754 L -7.052 -16.587 L -7.056 -16.587 L -7.056 -16.567 L -7.052 -16.567 L -7.052 -16.434 L -7.061 -16.259 L -7.068 -16.259 L -7.076 -16.182 L -7.088 -16.152 L -7.104 -16.109 L -7.112 -16.109 L -7.12 -16.057 L -7.132 -16.037 L -7.148 -16.002 L -7.152 -16.002 L -7.164 -15.977 L -7.2 -15.938 L -7.28 -15.831 L -7.448 -15.682 L -7.568 -15.656 C -7.687 -15.63 -7.739 -15.72 -7.835 -15.746 L -7.835 -15.75 L -7.963 -15.844 L -8.163 -16.041 L -8.183 -16.075 L -8.183 -16.092 L -8.199 -16.122 L -8.215 -16.152 L -8.335 -16.297 L -8.446 -16.387 L -8.499 -16.464 L -8.518 -16.502 L -8.578 -16.575 L -8.578 -16.635 L -8.555 -16.669 C -8.491 -16.742 -8.343 -16.78 -8.231 -16.742 L -8.091 -16.746 L -7.864 -16.754 L -7.86 -16.708 L -7.851 -16.708 L -7.847 -16.746 L -7.855 -16.746 L -7.843 -16.78 L -7.819 -16.78 L -7.672 -16.831 L -7.672 -16.839 L -7.604 -16.9 L -7.587 -16.934 L -7.519 -17.028 L -7.504 -17.049 L -7.44 -17.135 L -7.432 -17.135 L -7.364 -17.203 L -7.172 -17.258 L -7.008 -17.228 L -6.98 -17.173 L -6.972 -17.173 L -6.972 -17.075 L -6.98 -17.075 L -6.98 -17.075 Z" id="path6479" style="fill:#ffffff;fill-opacity:1;fill-rule:nonzero;stroke:none"/>
          <path d="M 5.706 -7.26 L 5.71 -7.294 L 5.738 -7.448 L 5.75 -7.5 L 5.758 -7.576 L 5.766 -7.576 L 5.786 -7.657 L 5.794 -7.657 L 5.802 -7.743 L 5.81 -7.743 L 5.818 -7.794 L 5.826 -7.794 L 5.83 -7.828 L 5.866 -7.961 L 5.87 -7.961 L 5.874 -8.012 L 5.89 -8.11 L 5.898 -8.11 L 5.906 -8.178 L 6.02 -8.178 L 6.017 -8.123 L 6.009 -8.123 L 6.006 -8.084 L 5.994 -8.012 L 5.985 -8.012 L 5.974 -7.961 L 5.97 -7.961 L 5.954 -7.909 L 5.942 -7.854 L 5.934 -7.76 L 5.926 -7.76 L 5.913 -7.709 L 5.91 -7.709 L 5.894 -7.653 L 5.89 -7.598 L 5.878 -7.576 L 5.849 -7.427 L 5.846 -7.375 L 5.838 -7.375 L 5.83 -7.32 L 5.818 -7.29 L 5.802 -7.248 L 5.794 -7.248 L 5.786 -7.192 L 5.778 -7.192 L 5.766 -7.131 L 5.734 -7.055 L 5.718 -7.004 L 5.71 -7.004 L 5.69 -6.94 L 5.674 -6.905 L 5.658 -6.871 L 5.638 -6.824 L 5.634 -6.824 L 5.614 -6.73 L 5.606 -6.73 L 5.586 -6.645 L 5.57 -6.597 L 5.554 -6.567 L 5.546 -6.567 L 5.527 -6.508 L 5.51 -6.47 L 5.482 -6.397 L 5.466 -6.354 L 5.459 -6.354 L 5.438 -6.264 L 5.422 -6.226 L 5.414 -6.226 L 5.399 -6.166 L 5.391 -6.166 L 5.37 -6.085 L 5.354 -6.055 L 5.338 -6.021 L 5.331 -6.021 L 5.31 -5.961 L 5.295 -5.906 L 5.278 -5.863 L 5.246 -5.781 L 5.231 -5.735 L 5.207 -5.674 L 5.199 -5.674 L 5.195 -5.632 L 5.182 -5.585 L 5.163 -5.495 L 5.158 -5.495 L 5.146 -5.432 L 5.135 -5.41 L 5.122 -5.372 L 5.114 -5.372 L 5.103 -5.307 L 5.099 -5.307 L 5.09 -5.273 L 5.079 -5.213 L 5.063 -5.166 L 5.054 -5.166 L 5.035 -5.102 L 5.018 -5.064 L 4.954 -4.961 L 4.907 -4.906 L 4.839 -4.807 L 4.847 -4.731 L 4.858 -4.679 L 4.863 -4.679 L 4.858 -4.624 L 4.819 -4.529 L 4.803 -4.487 L 4.795 -4.487 L 4.787 -4.461 L 4.779 -4.461 L 4.759 -4.423 L 4.751 -4.423 L 4.743 -4.397 L 4.735 -4.397 L 4.707 -4.346 C 4.534 -4.113 4.44 -3.895 4.304 -3.658 L 4.264 -3.576 L 4.255 -3.576 L 4.219 -3.517 C 4.133 -3.411 4.055 -3.287 3.94 -3.213 L 3.836 -3.128 L 3.692 -3.179 L 3.716 -3.248 L 3.872 -3.338 L 4.04 -3.478 L 4.116 -3.556 L 4.227 -3.667 L 4.191 -3.713 L 4.132 -3.773 L 4.108 -3.798 L 4.096 -3.812 L 4.108 -3.854 L 4.12 -3.868 L 4.283 -3.927 L 4.283 -3.935 L 4.291 -3.935 C 4.4 -4.066 4.497 -4.208 4.595 -4.35 L 4.611 -4.388 L 4.619 -4.388 L 4.679 -4.487 L 4.679 -4.534 L 4.671 -4.534 L 4.664 -4.59 L 4.655 -4.59 L 4.611 -4.654 L 4.603 -4.662 L 4.607 -4.683 L 4.659 -4.777 L 4.747 -4.868 L 4.751 -4.88 L 4.867 -5.013 L 4.887 -5.055 L 4.895 -5.055 L 4.935 -5.154 L 4.954 -5.179 L 4.975 -5.243 L 4.983 -5.243 L 4.995 -5.303 L 5.003 -5.367 L 5.018 -5.44 L 5.039 -5.478 L 5.063 -5.525 L 5.067 -5.525 L 5.079 -5.577 L 5.086 -5.577 L 5.099 -5.662 L 5.095 -5.662 L 5.103 -5.726 L 5.111 -5.726 L 5.122 -5.777 L 5.135 -5.803 L 5.146 -5.863 L 5.163 -5.906 L 5.186 -5.94 L 5.207 -5.991 L 5.214 -5.991 L 5.231 -6.063 C 5.268 -6.166 5.324 -6.265 5.367 -6.375 L 5.378 -6.444 L 5.386 -6.444 L 5.399 -6.504 L 5.422 -6.597 L 5.431 -6.597 L 5.438 -6.657 L 5.446 -6.657 L 5.466 -6.73 L 5.474 -6.73 L 5.491 -6.777 L 5.506 -6.811 L 5.527 -6.859 L 5.542 -6.901 L 5.55 -6.901 L 5.591 -6.986 L 5.614 -7.051 L 5.63 -7.089 L 5.638 -7.089 L 5.662 -7.157 L 5.678 -7.196 L 5.698 -7.26 L 5.706 -7.26 Z" id="path6483" style="fill:#ffffff;fill-opacity:1;fill-rule:nonzero;stroke:none"/>
          <path d="m 0,0 0,-0.004 -0.064,0.064 -0.028,0.025 -0.068,0.09 -0.004,0.013 -0.124,0.116 -0.115,0.097 -0.14,0.125 -0.024,0.034 -0.008,0 -0.004,0.012 -0.024,0.039 0.164,-0.077 C -0.292,0.363 -0.158,0.305 -0.028,0.163 L -0.008,0.103 0,0.103 0.008,0.008 0,0 m -0.096,-0.419 -0.048,0.012 0.008,0.022 0.064,0.022 0.004,-0.008 -0.028,-0.048 M -3.412,0.064 -3.437,0.123 -3.32,0.167 -3.305,0.085 -3.412,0.064 M -4.2,0.004 -4.236,-0.047 -4.411,-0.163 -4.671,-0.265 C -4.822,-0.29 -4.926,-0.367 -5.063,-0.411 l -0.2,-0.055 -0.223,-0.124 -0.052,-0.029 c -0.143,-0.03 -0.272,-0.09 -0.379,-0.163 l -0.248,-0.107 c -0.199,-0.134 -0.39,-0.283 -0.528,-0.487 l -0.051,-0.055 -0.168,0.055 -0.045,0.072 -0.015,0.035 -0.053,0.064 -0.007,0.026 -0.008,0 -0.04,0.059 -0.036,0.068 -0.02,0.052 -0.032,0.059 -0.012,0.052 -0.008,0 -0.016,0.043 -0.004,0.03 -0.008,0 -0.012,0.068 -0.012,0.069 -0.008,0 -0.004,0.06 -0.004,0.2 0.008,0.064 -0.008,0.081 0,0.15 0.004,0 0.012,0.051 0,0.154 -0.008,0 0,0.103 0.008,0 -0.012,0.09 -0.004,0 -0.012,0.063 -0.008,0 0,0.086 0.028,0.021 0.095,0.048 0.017,0.025 0.024,0.034 0,0.077 0.012,0 0,0.039 0.008,0 0.003,0.077 0.005,0 -0.005,0.089 -0.027,0.132 -0.056,0.069 -0.084,0.03 0,0.068 0.004,0 0.004,0.047 0.008,0 0.008,0.056 0.008,0 0.096,0.166 0.016,0.038 0.02,0.026 0.035,0.065 0.025,0.026 0.007,0.042 0.009,0 -0.012,0.06 -0.012,0.017 -0.024,0.038 -0.02,0.043 0.004,0 0,0.03 0.004,0 c -0.008,0.111 0.019,0.209 0,0.316 l 0.008,0.004 -0.004,0.022 0.004,0 -0.008,0.115 -0.008,0 -0.008,0.064 -0.008,0 -0.016,0.077 -0.004,0.034 -0.008,0 -0.008,0.065 -0.008,0 -0.004,0.093 C -7.172,2.67 -7.156,2.811 -7.16,2.927 l 0.007,0.141 0.005,0 0.012,0.038 0,0.146 0.008,0 0.012,0.085 0.004,0 0,0.069 0.016,0.008 0.032,-0.026 c 0.053,-0.129 0.107,-0.257 0.18,-0.375 l 0.031,-0.107 0.005,0 0.019,-0.069 0.008,0 0.017,-0.034 0.003,-0.018 0.008,-0.059 0.004,-0.004 -0.004,0 0,-0.124 -0.008,0 -0.011,-0.095 0.008,-0.004 -0.008,0 0.008,-0.004 -0.008,0 0,-0.03 0.008,0 0,-0.012 -0.008,0 0,-0.085 -0.004,0 -0.005,-0.091 -0.008,0 0.008,-0.137 -0.008,0 0,-0.076 -0.007,0 -0.004,-0.158 -0.004,0 0,-0.116 0.008,0 0.024,-0.025 0.083,0.077 0,0.016 0.004,0 0,0.095 0.013,0.145 0,0.038 0.004,0 -0.004,0.115 0,0.065 0.004,0 0.003,0.082 0.008,0 0.013,0.076 0,0.09 0.004,0 0.004,0.119 0.004,0 -0.004,0.005 0.004,0 0.011,0.222 0.004,0 0.013,0.077 0,0.034 0.007,0 0.012,0.06 0.004,0 0.012,0.064 0.004,0 0.012,0.098 0.009,0 0,0.137 -0.009,0 0,0.06 0.009,0 -0.004,0.004 0.004,0 0.007,0.06 0.008,0 0.008,0.069 0.008,0 0.012,0.055 0.004,0 0.012,0.046 0.02,0.018 0.072,-0.09 0.012,-0.043 0.024,-0.038 0.016,-0.03 0.02,-0.065 0.004,0 0.02,-0.038 0.012,-0.043 0.012,-0.03 0.012,-0.076 0.004,0 0.016,-0.039 0.012,-0.016 0.016,-0.039 0.02,-0.064 0.008,0 0.008,-0.048 0.008,0 0.019,-0.05 0.041,-0.069 0.016,-0.047 0.004,-0.038 0.008,0 0.008,-0.082 0.008,0 0.008,-0.123 c 0.007,-0.13 0.014,-0.28 0.103,-0.381 l 0.073,-0.077 c 0.063,-0.072 0.127,-0.141 0.247,-0.167 l 0.168,-0.111 0.116,-0.102 0.028,-0.055 0.008,0 0.016,-0.03 C -5.27,1.577 -5.235,1.455 -5.154,1.346 l 0.04,-0.042 c 0.228,-0.442 0.136,-0.223 0.435,-0.526 l 0.044,-0.065 0.076,-0.149 0.004,0 0.02,-0.06 0.016,-0.06 0.008,0 0.02,-0.077 0.008,0 L -4.467,0.333 -4.435,0.274 -4.423,0.248 -4.419,0.235 -4.2,0.129 -4.179,0.043 -4.2,0.004 m -3.108,0.556 -0.02,0.034 -0.012,0.15 0.008,0.064 0.004,0 0.013,0.051 0.031,0.052 0.036,0.046 0.016,-0.022 0.02,-0.024 -0.072,-0.137 0.032,-0.044 0.036,-0.033 0.02,-0.014 -0.004,-0.05 -0.008,0 L -7.244,0.581 -7.308,0.56 m -5.861,-13.003 0.152,0.102 c 0.107,0.065 0.224,0.121 0.331,0.189 l 0.064,-0.044 0.004,-0.029 0.008,-0.09 0.017,-0.124 0.003,0 0,-0.128 -0.003,0 -0.009,-0.158 0.009,-0.039 0.003,0 0.016,-0.068 0.004,-0.055 0.008,0 0.004,-0.206 0.016,-0.171 0.016,-0.131 0.004,-0.006 -0.004,0 0.008,-0.012 -0.008,0 0.004,-0.008 -0.004,0 -0.008,-0.065 -0.02,-0.021 -0.028,0.004 -0.06,0.09 -0.008,0.018 -0.06,0.111 -0.047,0.055 -0.036,0.076 -0.005,0 -0.036,0.06 -0.019,0.018 c -0.032,0.067 -0.128,0.073 -0.217,0.067 -0.111,-0.012 -0.195,-0.054 -0.299,-0.08 l -0.132,-0.069 -0.2,-0.098 -0.056,0.013 -0.008,0.034 0.004,0 0.013,0.077 0.019,0.043 0.016,0.026 0,0.034 0.025,0.026 0.027,0.076 0.005,0 0.011,0.039 c 0.238,0.334 0.152,0.092 0.364,0.35 l 0.112,0.094 m 10.987,12.999 0.013,0.008 0.055,0.043 0.164,0 0,-0.026 -0.051,-0.043 -0.181,-0.026 0,0.044 z m 6.357,-3.842 c -0.099,0.09 -0.192,0.188 -0.267,0.291 l -0.053,0.166 -0.06,0.048 -0.023,0.042 -0.02,0.085 -0.156,0.21 c -0.095,0.068 -0.144,0.183 -0.255,0.235 l -0.132,0.107 -0.028,0.042 0.011,0.021 0.024,0.04 0,0.063 -0.167,0.133 -0.085,0.086 -0.211,0.174 c -0.1,0.048 -0.196,0.103 -0.316,0.103 -0.108,0.047 -0.236,0.06 -0.336,0.128 l -0.211,0.099 -0.204,0.131 -0.084,0.069 -0.012,0.06 0.224,-0.051 0.136,0.008 0.008,0.055 -0.028,0.039 -0.176,0.047 -0.184,0.026 -0.155,0.12 0.036,0.026 0.26,-0.048 0.095,-0.017 C 1.894,-0.769 1.982,-0.812 2.078,-0.8 l 0.147,0.044 -0.02,0.038 c -0.2,0.017 -0.367,0.111 -0.559,0.136 l -0.188,0.074 0.089,0.047 c 0.115,0.012 0.215,-0.026 0.319,-0.026 0.192,-0.021 0.359,-0.085 0.527,-0.158 l 0.208,-0.099 0.064,0.035 0,0.068 -0.052,0.043 -0.176,0.132 C 2.333,-0.487 2.282,-0.381 2.174,-0.401 2.01,-0.381 1.85,-0.329 1.679,-0.346 l -0.2,0.03 -0.028,0.038 0.028,0.026 0.163,0.012 c 0.088,0.014 0.176,0.014 0.268,0.022 0.136,0.021 0.295,0.013 0.431,-0.013 l 0.024,0.017 0,0.043 C 2.182,-0.09 1.974,-0.137 1.774,-0.119 l -0.24,-0.014 -0.024,0.03 0.176,0.099 c 0.104,0.059 0.24,0.068 0.336,0.145 0.096,0.043 0.207,0.047 0.311,0.055 l 0.204,0.146 0.016,0.029 0.053,0.099 0.043,0.072 0.012,0.077 0.004,0 0.004,0.056 0.004,0.051 0.012,0.137 0.004,0.137 0.012,0.004 -0.012,0.09 0.012,0.051 0,0.171 -0.008,0.008 c -0.004,0.086 0,0.214 -0.004,0.325 L 2.709,1.701 2.701,1.79 2.709,1.949 2.717,2.06 2.725,2.064 c 0,0.107 0.004,0.205 0.008,0.308 L 2.725,2.418 C 2.697,2.566 2.72,2.97 2.689,3.14 L 2.673,3.235 C 2.681,3.329 2.657,3.406 2.665,3.5 L 2.649,3.538 2.657,3.632 2.649,3.636 2.641,3.811 2.629,3.845 2.613,3.875 2.613,3.974 2.606,3.978 2.593,4.103 2.565,4.162 2.557,4.248 2.545,4.337 2.537,4.448 l 0,0.218 -0.012,0.004 0.008,0.009 -0.008,0.004 0.008,0.06 -0.004,0 L 2.525,4.884 2.517,4.889 2.51,5.02 C 2.458,5.294 2.443,5.567 2.353,5.832 L 2.318,5.943 C 2.274,6.042 2.269,6.191 2.197,6.273 L 2.118,6.316 1.905,6.268 1.882,6.221 1.85,6.187 1.818,6.132 1.786,6.094 1.734,6.003 1.662,5.858 1.594,5.713 1.554,5.645 1.51,5.564 1.483,5.529 1.458,5.491 C 1.419,5.388 1.334,5.32 1.279,5.23 L 1.242,5.165 1.163,5.046 C 0.888,4.529 0.631,4.01 0.364,3.495 L 0.336,3.444 0.32,3.392 C 0.159,2.681 -0.109,2.219 -0.439,1.576 l -0.009,-0.038 -0.036,-0.059 0.02,-0.056 0.016,-0.24 c 0.06,-0.093 0.152,-0.175 0.22,-0.26 L -0.144,0.812 C -0.105,0.673 0.029,0.556 0.016,0.401 l 0,-0.046 -0.1,0.05 -0.132,0.103 C -0.292,0.598 -0.403,0.671 -0.52,0.718 -0.567,0.76 -0.607,0.855 -0.699,0.812 L -0.735,0.744 -0.771,0.718 -0.827,0.645 c 0.107,-0.111 0.26,-0.188 0.375,-0.29 L -0.296,0.218 -0.144,0.047 -0.012,-0.043 0,-0.085 0.012,-0.145 0,-0.175 l -0.032,-0.026 -0.08,0.043 -0.16,0.128 -0.107,0.098 c -0.088,0.073 -0.196,0.116 -0.288,0.188 l -0.145,-0.03 0.096,-0.093 c 0.089,-0.078 0.205,-0.116 0.296,-0.189 l 0.028,-0.055 -0.043,0.008 c -0.185,0.018 -0.352,0.085 -0.54,0.107 -0.092,-0.004 -0.16,0.06 -0.256,0.047 -0.111,0.06 -0.252,0.026 -0.363,0.082 l -0.017,0.02 -0.055,0.031 C -1.79,0.163 -1.91,0.167 -2.037,0.158 l -0.085,0.017 -0.143,0.065 0.007,0.097 c 0.016,0.116 0.168,0.044 0.228,0.12 0.125,0.004 0.208,0.103 0.332,0.103 l 0.032,0.064 -0.188,0.021 0.008,0.018 0.036,0.034 0.199,0.077 L -1.63,0.812 -1.714,0.799 -1.862,0.739 C -1.969,0.744 -2.062,0.722 -2.169,0.718 L -2.242,0.765 -2.321,0.657 C -2.348,0.592 -2.277,0.555 -2.337,0.397 L -2.361,0.214 -2.482,0.184 C -2.609,0.158 -2.737,0.167 -2.861,0.137 l -0.207,-0.03 -0.037,0.133 -0.004,0.076 0.013,0.085 0.007,0.004 -0.007,0.18 0.007,0.026 -0.007,0.03 0.007,0.077 0.021,0.038 0.008,0.068 0.007,0.081 0.008,0.06 L -3.057,1 -3.077,1.09 -3.1,1.145 l -0.005,0.111 -0.2,0.133 -0.127,0.098 c -0.089,0.171 -0.075,0.279 -0.032,0.462 l 0.016,0.038 0.028,0.055 c 0.061,0.162 0.122,0.32 0.164,0.487 l 0.011,0.073 0.049,0.223 0.004,0 0.004,0.042 0.015,0.085 c 0.078,0.257 0.184,0.496 0.269,0.748 l 0.023,0.056 0.008,0.043 c 0.225,0.633 0.408,0.808 0.736,1.324 l 0.143,0.175 0.096,0.09 0.044,-0.042 C -1.801,5.159 -1.77,4.967 -1.734,4.778 L -1.742,4.538 -1.75,4.534 -1.726,4.482 C -1.702,4.295 -1.679,4.109 -1.67,3.922 L -1.666,3.773 C -1.64,3.651 -1.63,3.609 -1.611,3.478 l 0.017,-0.046 0,-0.125 0.008,-0.004 C -1.594,3.192 -1.57,3.106 -1.578,2.995 L -1.57,2.936 -1.551,2.88 -1.551,2.726 -1.566,2.654 -1.57,2.547 -1.578,2.513 -1.586,2.406 -1.594,2.398 -1.598,2.295 -1.594,2.188 -1.586,2.162 -1.57,2.124 -1.562,1.995 -1.551,1.957 -1.534,1.919 -1.526,1.846 -1.511,1.803 -1.502,1.619 -1.506,1.619 -1.515,1.534 -1.586,1.363 C -1.662,1.265 -1.774,1.171 -1.922,1.175 L -2.129,1.076 -2.233,0.974 -2.242,0.915 -2.222,0.885 -2.218,0.82 -2.173,0.794 c 0.087,0.026 0.179,0.039 0.268,0.069 L -1.774,0.889 -1.63,0.915 -1.834,0.979 -1.922,0.974 -1.93,1 l 0.2,0.107 c 0.088,0.056 0.172,0.115 0.247,0.187 l 0.041,0.073 c 0.076,0.078 0.051,0.252 0.048,0.354 l 0,0.073 -0.012,0.06 -0.017,0.065 0,0.32 -0.007,0.004 -0.021,0.069 0,0.26 0.013,0.004 0,0.094 0.008,0.159 -0.008,0.047 -0.02,0.064 0,0.282 0.007,0.004 -0.007,0.039 C -1.437,3.5 -1.502,3.723 -1.511,3.952 L -1.519,4.016 C -1.571,4.168 -1.52,4.217 -1.578,4.337 L -1.586,4.44 -1.606,4.5 c 0.012,0.093 -0.012,0.17 -0.005,0.268 L -1.622,4.845 C -1.653,5.234 -1.717,5.213 -1.766,5.491 L -1.786,5.546 -1.958,5.55 -2.041,5.457 -2.173,5.332 -2.186,5.316 -2.193,5.268 -2.218,5.226 -2.273,5.153 -2.382,4.978 -2.465,4.875 C -2.62,4.737 -2.631,4.57 -2.785,4.384 L -2.793,4.337 -2.817,4.282 C -2.899,4.008 -3.044,3.774 -3.105,3.517 L -3.149,3.426 -3.156,3.38 -3.181,3.32 -3.2,3.295 C -3.287,2.98 -3.385,2.901 -3.42,2.538 L -3.432,2.448 -3.448,2.418 C -3.46,2.166 -3.712,1.832 -3.612,1.598 L -3.592,1.546 -3.568,1.5 -3.516,1.41 c 0.06,-0.102 0.192,-0.111 0.284,-0.184 L -3.149,1.157 -3.22,1.017 -3.341,1.068 C -3.464,1.09 -3.548,1.179 -3.648,1.231 L -3.876,1.308 -3.963,1.269 -3.859,1.179 C -3.763,1.171 -3.672,1.137 -3.612,1.072 L -3.696,0.991 -3.756,0.915 -3.532,0.901 c 0.104,-0.03 0.236,-0.008 0.319,-0.093 L -3.232,0.744 -3.484,0.722 -3.603,0.679 -3.62,0.649 -3.473,0.657 -3.252,0.649 -3.241,0.56 -3.292,0.504 c -0.1,-0.022 -0.204,-0.034 -0.3,-0.06 l -0.028,-0.055 0.056,-0.018 0.232,0.069 0.083,-0.021 0,-0.086 -0.079,-0.085 -0.18,-0.09 -0.223,-0.09 -0.164,-0.094 -0.092,-0.008 0.007,0.094 0.008,0.051 -0.012,0.056 -0.015,0.047 -0.116,0.06 -0.204,0.038 -0.008,0.039 -0.016,0.059 -0.072,0.197 -0.012,0.021 -0.036,0.069 c -0.036,0.127 -0.14,0.2 -0.224,0.29 l -0.152,0.12 C -5.097,1.438 -5.104,1.599 -5.318,1.902 L -5.51,2.077 c -0.152,0.055 -0.3,0.128 -0.395,0.252 l -0.008,0.055 -0.008,0.056 -0.02,0.055 -0.004,0.129 -0.021,0.072 0,0.013 0.008,0.09 -0.015,0.042 -0.017,0.035 -0.015,0.068 -0.021,0.026 -0.023,0.085 -0.02,0.026 -0.025,0.064 -0.043,0.068 -0.021,0.068 -0.003,0.056 -0.024,0.043 -0.068,0.179 -0.072,0.125 -0.02,0.059 -0.016,0.056 -0.02,0.038 -0.032,0.09 L -6.433,3.96 -6.52,3.982 -6.577,3.927 C -6.681,3.775 -6.702,3.233 -6.74,3.098 L -6.78,3.081 -6.833,3.174 c -0.07,0.154 -0.12,0.273 -0.175,0.428 L -7.096,3.718 -7.16,3.704 -7.18,3.649 -7.196,3.567 -7.208,3.512 -7.224,3.414 -7.24,3.354 -7.252,3.154 -7.26,3.149 l 0,-0.094 -0.016,-0.085 0,-0.205 0.008,-0.004 -0.008,-0.026 0,-0.171 0.008,-0.005 0.008,-0.132 C -7.232,2.333 -7.206,2.244 -7.18,2.149 L -7.192,2.06 C -7.18,1.949 -7.204,1.854 -7.196,1.743 l 0.008,-0.068 0.003,0 0,-0.129 C -7.419,1.132 -7.347,1.249 -7.408,0.901 L -7.411,0.769 -7.424,0.76 -7.411,0.693 c 0.002,-0.136 0.033,-0.298 0.047,-0.445 l 0.017,-0.069 c 0,-0.098 -0.009,-0.153 -0.005,-0.256 l -0.012,-0.004 -0.008,-0.064 c -0.037,-0.2 -0.051,-0.404 0.025,-0.599 l 0.032,-0.141 0.003,0 0.024,-0.09 0.072,-0.17 0.044,-0.09 0.068,-0.124 -0.104,-0.124 -0.088,-0.098 -0.064,0.017 -0.004,-0.013 -0.024,0.013 -0.084,-0.072 -0.02,0.072 0.009,0.089 -0.06,0.035 -0.072,-0.107 -0.045,-0.111 -0.024,-0.047 c -0.165,-0.127 -0.221,-0.38 -0.351,-0.556 L -8.079,-2.32 -8.095,-2.368 C -8.147,-2.5 -8.218,-2.619 -8.278,-2.747 L -8.342,-2.85 -8.37,-2.928 -8.399,-2.966 c -0.22,-0.322 -0.355,-0.693 -0.411,-1.089 l -0.02,-0.06 -0.008,-0.124 -0.004,0 -0.005,-0.043 -0.007,-0.042 -0.016,-0.039 -0.008,-0.111 -0.02,-0.038 -0.124,-0.175 -0.112,-0.065 -0.152,-0.068 C -9.482,-4.854 -9.665,-4.931 -9.845,-4.995 L -9.917,-5.05 c -0.128,-0.005 -0.191,-0.103 -0.276,-0.167 l 0,-0.013 -0.024,-0.039 -0.007,-0.063 -0.029,-0.056 -0.007,-0.133 0,-0.081 0.007,-0.056 0.012,-0.063 -0.004,-0.116 -0.04,-0.086 -0.075,-0.183 -0.028,-0.115 -0.008,-0.018 -0.064,-0.133 -0.053,0.01 -0.135,-0.004 0,0.004 -0.116,0.055 -0.156,-0.034 0.008,-0.06 0.056,-0.03 0.219,-0.064 0.16,-0.077 0.025,-0.047 0.02,-0.077 0,-0.141 -0.009,-0.039 -0.027,-0.038 c -0.12,-0.016 -0.232,-0.051 -0.344,-0.077 -0.144,-0.038 -0.264,-0.111 -0.404,-0.157 l -0.224,-0.103 -0.003,-0.056 0.024,-0.06 0.203,0.06 0.249,0.119 c 0.159,0.044 0.303,0.133 0.475,0.151 l 0.024,-0.039 0.012,-0.052 -0.012,-0.064 -0.016,-0.038 -0.008,-0.047 -0.021,-0.034 -0.015,-0.064 -0.008,-0.065 -0.016,-0.029 -0.021,-0.064 -0.159,-0.111 -0.06,-0.086 0.212,0.022 0.088,-0.086 0.008,-0.094 0.016,-0.043 0.016,-0.051 0.02,-0.03 0.008,-0.089 0.015,-0.039 0.013,-0.06 0.015,-0.038 0.017,-0.052 0.028,-0.043 -0.02,-0.06 c -0.08,-0.038 -0.168,-0.076 -0.264,-0.085 l -0.148,-0.055 -0.06,-0.052 -0.016,-0.068 0.016,-0.111 0.012,-0.038 -0.012,-0.004 -0.084,-0.116 -0.068,-0.146 -0.055,-0.097 -0.113,-0.155 -0.128,-0.068 -0.179,-0.17 -0.06,-0.082 -0.012,-0.034 -0.016,-0.039 -0.025,-0.042 -0.155,-0.133 -0.056,-0.103 c -0.04,-0.123 -0.179,-0.17 -0.239,-0.277 -0.029,-0.094 -0.149,-0.102 -0.189,-0.184 -0.103,-0.064 -0.167,-0.158 -0.259,-0.23 l -0.148,-0.116 -0.143,-0.068 0.059,-0.103 -0.087,-0.12 c -0.096,-0.059 -0.164,-0.132 -0.224,-0.218 l -0.068,-0.085 0.007,-0.038 0.032,-0.107 -0.015,-0.026 -0.145,-0.166 -0.043,-0.06 -0.068,-0.111 -0.012,-0.06 0.02,-0.034 -0.008,-0.073 -0.084,-0.119 -0.048,-0.078 -0.044,-0.063 -0.004,-0.06 -0.02,-0.077 -0.024,-0.077 -0.151,-0.175 -0.032,-0.048 -0.017,-0.042 -0.119,-0.171 -0.045,-0.103 -0.007,-0.025 -0.012,-0.064 -0.017,-0.043 -0.015,-0.06 -0.013,-0.107 -0.004,-0.153 -0.011,-0.026 0.015,-0.056 -0.1,-0.124 c -0.065,-0.217 -0.086,-0.169 -0.147,-0.32 l 0.015,-0.026 c 0.068,-0.121 0.019,-0.439 -0.043,-0.564 l -0.004,-0.081 0.04,-0.026 0.036,0.064 0.016,0.077 0.008,0.069 0.02,0.034 0.016,0.046 0.016,0.069 -0.008,0.154 0.016,0.047 0.019,0.056 0.025,0.051 0.052,0.068 0,0.06 -0.005,0.055 0.013,0.039 0.139,0.171 0.089,0.094 0.023,0.039 0,0.016 -0.068,0.116 0.024,0.017 c 0.104,0.034 0.2,0.103 0.316,0.111 0.112,0.052 0.236,0.167 0.372,0.094 l 0.203,-0.162 0.044,-0.065 0.017,-0.046 0.015,-0.043 0.148,-0.141 0.144,0.021 0.072,0.116 0.016,0.059 0.016,0.056 0.02,0.047 0,0.286 -0.013,0.078 -0.007,0.059 -0.008,0.107 -0.008,0 0,0.572 -0.016,0.052 -0.02,0.047 -0.008,0.042 -0.064,0.116 -0.24,-0.047 -0.04,-0.035 -0.207,-0.111 c -0.085,-0.042 -0.145,-0.132 -0.24,-0.137 l 0.036,0.103 0.032,0.086 0.016,0.064 0.007,0.081 c 0.089,0.055 0.153,0.141 0.245,0.196 l 0.015,0.039 -0.087,0.009 -0.06,-0.013 0.023,0.038 0.152,0.171 c 0.116,0.056 0.16,0.159 0.248,0.235 l 0.032,0.12 -0.1,0.008 0,0.022 c 0.36,0.312 0.322,0.512 0.855,0.854 l 0.216,0.218 c 0.088,0.004 0.1,0.094 0.168,0.125 0.123,0.149 0.336,0.187 0.499,0.307 0.148,0.09 0.316,0.132 0.492,0.166 l 0.264,0.069 0.131,0.026 0.008,-0.095 0.061,-0.02 c 0.123,-0.069 0.267,-0.129 0.422,-0.116 0.089,0.034 0.232,0.051 0.3,-0.021 0.1,-0.026 0.152,-0.111 0.26,-0.125 l 0.168,-0.056 0.164,-0.127 0.131,-0.115 c 0.072,-0.082 0.192,-0.111 0.256,-0.206 l 0.157,-0.102 0.139,-0.077 c 0.1,-0.047 0.168,-0.133 0.276,-0.171 l 0.084,0.018 -0.052,0.11 -0.2,0.103 -0.247,0.154 c -0.105,0.06 -0.209,0.132 -0.288,0.209 l -0.189,0.162 -0.207,0.15 c -0.104,0.017 -0.196,0.077 -0.296,0.107 -0.079,0.025 -0.143,0.081 -0.232,0.098 l -0.199,0.009 -0.176,0.077 c -0.092,-0.022 -0.096,0.081 -0.176,0.093 -0.1,0.009 -0.208,0.022 -0.312,0.009 -0.107,0.013 -0.179,-0.09 -0.284,-0.043 -0.087,-0.004 -0.163,-0.047 -0.247,-0.051 -0.112,-0.043 -0.215,-0.085 -0.311,-0.154 l -0.156,-0.081 -0.168,-0.039 0.008,0.056 c 0.06,0.111 0.192,0.145 0.279,0.24 l 0.037,0.004 0.107,0.123 0.016,0.052 0.02,0.029 0.072,0.086 0.108,0.158 0.144,0.137 0.036,0.086 0.055,0.081 0.021,0.076 c 0.075,0.069 0.192,0.065 0.284,0.099 l 0.019,0.034 -0.06,0.094 0.037,0.116 c -0.087,0.324 -0.247,0.472 -0.205,0.884 l 0.021,0.039 0.007,0.059 0.017,0.047 0.008,0.055 0.02,0.048 0,0.093 0.016,0.073 0.016,0.133 0.019,0.042 0,0.099 -0.019,0.051 -0.016,0.06 0.007,0.052 0.017,0.081 -0.004,0.05 0.004,0 0.004,0.052 c 0.114,0.199 0.052,0.173 0.124,0.316 l 0.1,0.124 -0.028,0.086 -0.025,0.102 -0.011,0.223 0.099,0.238 0.14,0.038 0.179,-0.101 c 0.117,-0.022 0.173,-0.133 0.253,-0.189 l 0.02,-0.034 0.059,-0.098 0.028,-0.072 -0.011,-0.018 0,-0.128 0.036,-0.039 0.103,0.034 0,0.176 -0.024,0.064 -0.019,0.056 -0.036,0.068 c -0.064,0.077 -0.132,0.158 -0.22,0.214 l -0.057,0.047 -0.159,0.106 0.156,0.099 0.06,-0.022 0.007,-0.042 c 0.093,-0.099 0.181,0.068 0.292,0.038 l 0.028,-0.056 0,-0.047 0.084,-0.004 0.267,-0.017 C -8.734,-5.226 -8.91,-5.247 -8.89,-5.324 l 0.228,-0.073 -0.012,-0.038 -0.024,-0.038 0.008,-0.039 0.135,-0.048 0.045,0.039 -0.105,0.102 0.021,0.077 0.007,0.005 -0.007,0.029 -0.14,0.193 -0.04,0.055 -0.132,0.048 -0.096,0.077 0.016,0.119 0.212,0.171 0.059,-0.03 0.06,0.022 0.008,0.025 0.009,0.146 0.015,0.025 0.008,0.072 0.021,0.078 0.007,0.063 0.017,0.026 0.011,0.069 0.017,0.042 -0.013,0.069 -0.06,-0.043 -0.015,-0.038 -0.008,-0.06 -0.017,-0.047 -0.035,-0.154 -0.02,-0.055 -0.005,0.038 0.017,0.051 0,0.112 0.008,0.004 0.007,0.175 0.017,0.051 c 0.051,0.188 0.05,0.402 0.168,0.56 l 0.071,0.137 0.08,0.192 c 0.164,0.282 0.326,0.689 0.491,0.953 l 0.061,0.115 0.052,0.052 -0.004,-0.107 0.048,-0.038 0.047,0.093 0.06,0.145 0.024,0.048 0.029,0.042 0.06,0.021 0.059,-0.067 0.092,0.042 0.148,0.192 0.016,0.026 0.016,0.038 0.116,0.115 0.228,-0.03 0.011,-0.02 0.021,-0.082 0.124,0.056 c 0.064,0.098 0.155,0.175 0.227,0.265 0.128,0.111 0.236,0.23 0.391,0.315 l 0.04,-0.008 0.145,0.022 c 0.1,0.093 0.252,0.127 0.363,0.2 0.08,0.073 0.204,0.099 0.304,0.15 0.088,0.043 0.192,0.043 0.275,0.085 0.152,0.039 0.268,0.133 0.408,0.18 0.116,0.022 0.2,0.103 0.323,0.098 0.113,0.021 0.217,0.077 0.332,0.09 0.109,0.013 0.208,0.068 0.316,0.051 l 0.151,0.039 c 0.096,0.046 0.205,0.03 0.313,0.042 0.087,0.03 0.192,0.026 0.283,0.043 0.12,0.043 0.228,-0.034 0.348,-0.021 0.343,0.038 0.687,-0.022 1.01,-0.082 0.132,-0.038 0.284,-0.021 0.416,-0.063 l 0.1,-0.014 0.116,-0.016 0.06,-0.081 -0.012,-0.044 0.119,-0.111 -0.143,-0.072 -0.004,-0.043 c 0.083,-0.056 0.204,-0.021 0.303,-0.03 l 0.18,-0.012 0.18,0.008 0.06,-0.085 0.072,-0.013 0.024,0.038 0.008,0.064 0.016,0.099 c 0.074,0.225 0.038,0.534 0.08,0.739 l 0,0.192 C -0.356,1.594 -0.516,0.989 0.024,2.11 L 0.052,2.183 C 0.058,2.4 0.273,2.621 0.275,2.799 l 0.013,0.081 0.028,0.051 0.012,0.077 0.008,0 0.003,0.035 C 0.678,4.069 1.384,5.109 1.898,6.042 L 2.01,6.191 2.165,6.174 2.182,5.957 2.19,5.953 2.21,5.88 2.233,5.824 2.25,5.781 2.269,5.717 2.278,5.64 2.293,5.55 2.305,5.435 2.321,5.371 l 0,-0.107 0.008,-0.008 0.012,-0.158 0.005,0 0.007,-0.141 C 2.38,4.9 2.4,4.754 2.425,4.717 l 0,-0.116 0.008,-0.004 0,-0.363 L 2.442,4.226 2.449,4.17 2.465,4.127 2.478,4.067 2.493,3.96 2.493,3.807 2.51,3.764 2.521,3.674 2.537,3.606 2.545,3.517 2.565,3.491 2.553,3.466 2.565,3.371 2.569,3.119 2.581,3.115 2.589,2.88 2.601,2.785 2.606,2.785 2.597,2.773 C 2.593,2.571 2.646,2.359 2.629,2.231 L 2.625,2.055 2.613,2.051 2.613,1.953 2.597,1.884 2.597,1.765 2.589,1.761 2.581,1.619 2.589,1.487 l 0,-0.244 -0.02,-0.056 0.012,-0.063 0,-0.112 -0.012,-0.008 0,-0.141 L 2.565,0.769 2.545,0.718 2.537,0.633 2.521,0.572 2.493,0.482 C 2.417,0.363 2.261,0.32 2.11,0.316 2.022,0.32 1.962,0.252 1.882,0.24 1.79,0.196 1.682,0.188 1.579,0.163 1.475,0.123 1.387,0.043 1.33,-0.047 L 1.311,-0.094 C 1.334,-0.635 1.07,-0.866 1.067,-1.154 l 0.043,-0.039 0.105,0.077 0.019,0.034 0.017,0.052 0.143,-0.038 C 1.51,-1.094 1.598,-1.158 1.682,-1.227 1.85,-1.32 2.005,-1.445 2.197,-1.491 l 0.072,-0.03 C 2.361,-1.534 2.433,-1.586 2.525,-1.602 2.645,-1.684 2.804,-1.717 2.9,-1.829 L 2.889,-1.884 2.753,-1.906 2.685,-1.957 2.861,-2.06 3.141,-2.218 C 3.296,-2.269 3.405,-2.384 3.492,-2.495 L 3.512,-2.551 3.48,-2.569 C 3.4,-2.539 3.312,-2.5 3.22,-2.509 l -0.079,-0.055 0.111,-0.06 c 0.156,-0.034 0.304,-0.111 0.404,-0.213 l 0.156,-0.154 0.143,-0.15 0.108,-0.119 0.096,-0.107 0.048,0 -0.032,0.081" id="path6491" style="fill:#ffffff;fill-opacity:1;fill-rule:nonzero;stroke:none"/>
        </g>
      </g>
    </g>
  </g>
</svg>